<?xml version="1.0" encoding="UTF-8"?>
<svg id="44 Clover Icon" xmlns="http://www.w3.org/2000/svg" viewBox="0 0 483.2 530.04">
  <defs>
    <style>
      .cls-1 {
        fill: #166534;
      }
    </style>
  </defs>
  <path class="cls-1" d="M11.43,158.62c28.38-36.24,71.67-33.43,108.5-13.31,31.76,17.35,56.86,44.38,84.53,67.23,39.74,32.82,38.74,29.2,7.32-8.65-30.08-36.24-75.33-75.41-81.21-125.14-7.72-65.31,69.6-109.88,110.49-51.92,44.39-56.54,120.19-12.08,110.49,53.91-8.27,56.3-75.66,112.74-106.5,158.42,1.51-62.13.14-124.35-3.99-186.37-.4,62.08-8.15,124.47-1.33,186.37-62.07-4.48-124.38,0-186.37,3.33,62.09.61,124.34,7.58,186.37,1.33-6.6,61.88.54,124.31,1.33,186.37,3.25-62.26,6.56-124.7,3.33-187.04,29.59,51.57,112.03,113.6,108.5,175.72-3.4,59.74-76.07,90.05-111.16,37.27-42.56,56-117.48,15-110.49-51.25,5.83-55.25,74.25-115.97,107.16-159.75-48,30.39-100.51,98.12-157.75,106.5-66.34,9.71-110.65-66.59-53.91-109.83-28.37-16.44-35.31-57.67-15.31-83.2Z"/>
  <path class="cls-1" d="M247.06,237.17c36.4-29.39,88.81-81.66,130.46-98.51,82.25-33.29,141.23,54.82,78.54,103.17,61.1,42.93,9.86,128.21-63.23,108.5-41.09-11.08-71.33-46.64-103.17-72.55-5.32-4.33-43.66-30.16-43.27-33.28,59.68,5.17,119.34-1.82,179.05-2l1.33-2c-59.92.74-119.85-6.8-179.72-1.33v-2Z"/>
  <path class="cls-1" d="M307.63,307.06c70.51,54.87,131.11,130,148.43,218.99l-35.28,3.99c1.99-87.42-56.14-161.82-113.15-222.98Z"/>
</svg>